# xmcd
#
# Track frame offsets:
#	150
#	14101
#	29447
#	50208
#	64609
#	78566
#
# Disc length: 1258 seconds
#
# Revision: 1
# Processed by: cddbd v1.5.2PL0 Copyright (c) Steve Scherf et al.
# Submitted via: audiograbber 1.83.01
#
DISCID=5104e806
DTITLE=Blackberry Smoke - Wood, Wire and Roses
DYEAR=2015
DGENRE=Country
TTITLE0=Too High
TTITLE1=Living In The Song
TTITLE2=Woman In The Moon
TTITLE3=Lay It All On Me
TTITLE4=Let Me Help You (Find The Door)
TTITLE5=Old Shoes (& Picture Postcards)
EXTD=
EXTT0=
EXTT1=
EXTT2=
EXTT3=
EXTT4=
EXTT5=
PLAYORDER=
